inDegrees=yes
DataType=double
version=3
OpenSimVersion=4.5-2024-07-22-fc2981e9e
endheader
time	pelvis_tx	pelvis_ty	pelvis_tz	pelvis_tilt	pelvis_list	pelvis_rotation	hip_flexion_r	hip_adduction_r	hip_rotation_r	knee_angle_r	ankle_angle_r	subtalar_angle_r	mtp_angle_r	hip_flexion_l	hip_adduction_l	hip_rotation_l	knee_angle_l	ankle_angle_l	subtalar_angle_l	mtp_angle_l	lumbar_extension	lumbar_bending	lumbar_rotation	ground_force_vx	ground_force_vy	ground_force_vz	ground_force_px	ground_force_py	ground_force_pz	ground_force_vx	ground_force_vy	ground_force_vz	ground_force_px	ground_force_py	ground_force_pz	ground_torque_x	ground_torque_y	ground_torque_z	ground_torque_x	ground_torque_y	ground_torque_z	ground_marker_px	ground_marker_py	ground_marker_pz	ground_marker_px	ground_marker_py	ground_marker_pz	ground_marker_px	ground_marker_py	ground_marker_pz	ground_marker_px	ground_marker_py	ground_marker_pz	ground_marker_px	ground_marker_py	ground_marker_pz	ground_marker_px	ground_marker_py	ground_marker_pz	ground_marker_px	ground_marker_py	ground_marker_pz	ground_marker_px	ground_marker_py	ground_marker_pz	ground_marker_px	ground_marker_py	ground_marker_pz	ground_marker_px	ground_marker_py	ground_marker_pz	ground_marker_px	ground_marker_py	ground_marker_pz	ground_marker_px	ground_marker_py	ground_marker_pz	ground_marker_px	ground_marker_py	ground_marker_pz	ground_marker_px	ground_marker_py	ground_marker_pz	ground_marker_px	ground_marker_py	ground_marker_pz	ground_marker_px	ground_marker_py	ground_marker_pz	ground_marker_px	ground_marker_py	ground_marker_pz	ground_marker_px	ground_marker_py	ground_marker_pz	ground_marker_px	ground_marker_py	ground_marker_pz	ground_marker_px	ground_marker_py	ground_marker_pz	ground_marker_px	ground_marker_py	ground_marker_pz	ground_marker_px	ground_marker_py	ground_marker_pz	ground_marker_px	ground_marker_py	ground_marker_pz	ground_marker_px	ground_marker_py	ground_marker_pz	ground_marker_px	ground_marker_py	ground_marker_pz	ground_marker_px	ground_marker_py	ground_marker_pz	ground_marker_px	ground_marker_py	ground_marker_pz	ground_marker_px	ground_marker_py	ground_marker_pz	ground_marker_px	ground_marker_py	ground_marker_pz	ground_marker_px	ground_marker_py	ground_marker_pz	ground_marker_px	ground_marker_py	ground_marker_pz	ground_marker_px	ground_marker_py	ground_marker_pz	ground_marker_px	ground_marker_py	ground_marker_pz	ground_marker_px	ground_marker_py	ground_marker_pz	ground_marker_px	ground_marker_py	ground_marker_pz	ground_marker_px	ground_marker_py	ground_marker_pz	ground_marker_px	ground_marker_py	ground_marker_pz
0.5916665867826087	1.687052072907774	0.9249353145743958	-0.1660669045645866	-3.699114140021745	3.959615362938715	-1.18974413537423	-16.25603967129992	-2.169257259352695	-0.6178044072982843	-19.35530681358948	-15.35515000926062	7.399896658265082e-09	5.639501630287458e-10	27.77490323818558	5.844657418960568	-4.583509108148607	-17.01660543042006	-7.276957854001076	-1.724141873247087e-09	-8.057447565476502e-10	-4.7202764041213	-5.358192897262367	5.396918910053969	17.15661637080672	52.62925302684438	4.140366311278258	1.498404522495969	8.254805671118382e-10	-0.1338770411794457	17.0484452148865	50.6231723039356	4.098322809730695	1.49334680989561	9.75685156313513e-10	-0.1334588528731675	3.690801504401818e-09	0.05721131359914792	-2.341218870692827e-09	2.234758167976405e-09	0.05940025388984733	1.04452704318569e-09	1.813368669870621	0.646678920430065	-0.1764321464227251	1.824054429399361	0.6477057290085793	-0.1769706647351021	1.829120510142652	0.6504778886718884	-0.1763532636455459	1.827669517313512	0.6473864958624078	-0.1755474514543553	1.820428507131187	0.6450846614938521	-0.1776759116200081	1.826804007045449	0.6534047692663096	-0.1760078490051276	1.832188589860144	0.6465518420037225	-0.1766926245980223	1.806607260515913	0.6560921910148464	-0.1761762627615766	1.814668422798449	0.6518953534086759	-0.1752122428164543	1.8310151589958	0.6539367070305223	-0.1758358423831598	1.816484699114823	0.6483928414649421	-0.1761219318461208	1.820479816350407	0.6517667321972723	-0.1762250147793608	1.820263052170407	0.6523419475142535	-0.174792969417304	1.805956569477445	0.6521371482499561	-0.1771966782753717	1.802358141622301	0.6516072257122846	-0.1764941856891972	1.806624255601979	0.6457558551083354	-0.1765434325960327	1.808118291831834	0.6474779925656899	-0.1757659452542714	1.819530578126461	0.6511612973494649	-0.175741178594305	1.812362300476588	0.651229125653206	-0.1749821764099967	1.813887450682658	0.6469824818263101	-0.17499393599718	1.799203223881208	0.6463979668057084	-0.1767969062497169	1.819855047610877	0.6439736939604149	-0.1756258832153906	1.80164580498346	0.6508986554773557	-0.1764648530770603	1.815518274618297	0.651093929647769	-0.1766519442848035	1.81559597128037	0.6535136376709029	-0.17591621652675	1.831135246836671	0.645889669876169	-0.1755320051333058	1.808367900539988	0.6533765604858894	-0.1758052937583978	1.804207594403244	0.6520542178339297	-0.1768971346995197	1.808342939148806	0.6516088823405182	-0.1769508284682592	1.804800460447144	0.6482538527045165	-0.1753863578700913	1.827287386117427	0.6513396737018243	-0.1774192100292361	1.81819102662729	0.6482926981216713	-0.1761131857405242	1.828869264854107	0.6489475039705094	-0.1756599382468672	1.808250722972979	0.6447939296880333	-0.1752566192905952	1.795682543988156	0.6429894481163672	-0.1763156113330302	1.813029176481787	0.6537156808371789	-0.1760252627028952	1.805840439481123	0.6489659052019382	-0.1745455033869571
0.5999999203478261	1.697766739115732	0.9249353145743958	-0.1672750416837142	-3.68445608439698	4.307548264017533	-0.844553110721609	-15.29055333689895	-2.897632964705196	-0.7123053019636507	-21.74580675489288	-17.77919935381199	7.050981847517329e-09	9.653447087540176e-10	27.27764146912355	6.655377109327447	-3.814937867477404	-17.79604432249203	-6.697995843822881	-2.022292815706368e-09	-1.293074740404816e-09	-4.532050163214103	-5.832130657965363	5.243555784062085	10.89327896513909	34.85451828491296	2.925841232703474	1.500950005008207	1.953542459807361e-09	-0.1336345750862202	10.65822051184629	33.04211046616203	2.889908424912666	1.495034913200198	3.446792838979309e-10	-0.1332881717242175	4.95728679474963e-09	0.001135729411810188	-3.440938739754062e-09	5.203157569058262e-10	0.005884378779320958	1.041716508387297e-09	1.825895837602984	0.6473314805579398	-0.1779716013028951	1.838681608047323	0.6492345106682701	-0.1784137073507998	1.842570404885383	0.651762573432672	-0.1779937961548085	1.840029282715918	0.648288328278358	-0.1770348172082429	1.83348888818145	0.6464871318298879	-0.1792861089242514	1.842608105313447	0.6546562354407169	-0.1776371457352155	1.843789383149497	0.6478566841938758	-0.1783278561363393	1.818090802716729	0.6576553583026228	-0.1775804677123633	1.828613577719164	0.6530451099984678	-0.1766460147628425	1.843615722935237	0.6547774908187469	-0.1772213831538147	1.83004607559907	0.6490803294001868	-0.1773679924283341	1.834006185613191	0.653727335631633	-0.177727509669131	1.831741176796955	0.6539777427067854	-0.1764385585697184	1.817014723658225	0.653127227393987	-0.1786543049694708	1.817577702806899	0.6530253334322142	-0.1780975323275607	1.820890885893572	0.6468882216177472	-0.1776977149134764	1.821725125737733	0.6488911907815219	-0.1773993992318159	1.831467820878022	0.6522648119975329	-0.1772145873047184	1.825402621261921	0.652853540343564	-0.1766012754095182	1.825637692793659	0.648343421655988	-0.1763321812413884	1.816133357883397	0.6481077564088378	-0.1783682684399528	1.835616422040841	0.6449144265118508	-0.1770882010579304	1.812072366015946	0.6513866225881596	-0.1780674006694585	1.827534890501308	0.6521802643352725	-0.1782892947680689	1.827536548846641	0.6542094728336971	-0.177807303574399	1.84294401708308	0.6467910884328374	-0.1769927196063287	1.820961983284873	0.6548252324617855	-0.177037748556333	1.81718746542108	0.6538500167309875	-0.1786095098746333	1.81705913097593	0.653017056293873	-0.1784814294855059	1.817704133507738	0.6493511637020313	-0.1770242817050001	1.837061367551915	0.6528027869030067	-0.1788458013988688	1.829569148613064	0.6498798059201006	-0.1777359818127739	1.842577601198754	0.649461582999016	-0.1772970128362519	1.81829111562522	0.6466086479097556	-0.1766515112796527	1.807469456050056	0.6446341238447408	-0.1777100086415654	1.825833437621838	0.65461641658715	-0.177531000405624	1.818799579230404	0.6501990770645335	-0.1762263116250571
0.6083332539130435	1.70869899004054	0.9249353145743958	-0.1684074842754336	-3.708798930541799	4.571373520733548	-0.5729958981366688	-14.15347223266364	-3.555652263499882	-0.7242708038772783	-24.24199010454894	-19.86632799142223	6.743830129721692e-09	1.471734964682846e-09	26.74438406757865	7.326835087755151	-3.159860646523108	-18.4211582780348	-6.001356737036474	-2.449143685195017e-09	-1.794851924129765e-09	-4.25388485282781	-6.187167271675496	5.195064195722644	6.226141040261518	20.9224975164771	1.520914898289178	1.502352222918865	2.888473766257129e-09	-0.1319352605162289	5.874578899220818	19.40691764140346	1.487129856006699	1.495728562077598	-2.966463578676308e-10	-0.1316684560277334	5.870125155260854e-09	-0.03757121242036138	-4.356636836626704e-09	-1.098866497319147e-09	-0.02991657317882714	1.089200687975124e-09	1.83825429797125	0.6480516116085691	-0.1793891547818551	1.852686105605751	0.6509644252494166	-0.179668967676084	1.855545198380669	0.6530560967195578	-0.1795004349338774	1.851835388459554	0.649363497020369	-0.1783864856469031	1.846646245068027	0.6480179783461656	-0.1807675445494487	1.857741181806555	0.6559962237421143	-0.1791450183786132	1.854517116978069	0.6492112754178037	-0.1798678787855502	1.829617429542288	0.6591663847518553	-0.1788487040939692	1.841815273119752	0.6542131573061553	-0.1779264927249391	1.855730193782034	0.655552023650088	-0.1785118948511193	1.842565142359476	0.6500798202537357	-0.1784980850106128	1.847189381788262	0.655688207212728	-0.1791079406757422	1.841956682039208	0.6557910799630677	-0.1780252986781139	1.82768085222357	0.6542389468704212	-0.1799739500718905	1.832681799014607	0.6544797660284721	-0.1795999454010143	1.834706578698826	0.6483312356083704	-0.1787457730591868	1.835430956893361	0.6504669398431809	-0.1788884505238302	1.842695730946879	0.6534889315690011	-0.1785875491915055	1.838061145483247	0.6545993442703879	-0.1781305444954245	1.837535311786128	0.6499337546807634	-0.1775955849546313	1.833310340378047	0.6499630637825595	-0.1797891899009106	1.850868864915131	0.6460293216117203	-0.1784412677370718	1.822888737282547	0.6519814031179025	-0.1795477135631238	1.838831558063393	0.6536517569946676	-0.1797738313536866	1.839179734538797	0.6548581909121527	-0.1795378513185919	1.854238352645232	0.6480112198909045	-0.1783359736169734	1.8338397776507	0.6563440249129061	-0.1781474674381864	1.829866705037014	0.6558969182376059	-0.1802280831053485	1.826343326717447	0.654542438942424	-0.1798616718812282	1.830713469155525	0.6504659418735189	-0.1785202517382474	1.846515720177482	0.654374168589568	-0.1801790984541532	1.84102677967666	0.6515067331985455	-0.1792363838153964	1.855731078500552	0.6502063945298313	-0.1788199963380842	1.828944170446143	0.6487014917057534	-0.1779401327509278	1.81984493249257	0.6465987255314785	-0.1789681459055554	1.838458297593639	0.65560900568545	-0.1788974693227743	1.831211047041718	0.6515792346794418	-0.177852250328906
0.6166665874782609	1.719771673479912	0.9249353145743958	-0.169443795996828	-3.784717984350705	4.740737219425071	-0.3634845433286827	-12.84021401721789	-4.114066248677903	-0.7153804331851419	-26.81864188674895	-21.50791995620502	6.540746535003943e-09	2.084532279162161e-09	26.19105296586917	7.846348494233757	-2.65228030857403	-18.8827010796388	-5.233216321905696	-2.979511433654403e-09	-2.300707300981869e-09	-4.131184731043041	-6.434949997458955	5.1250254960358	2.905065430892765	11.20492038881103	0.4193255862355101	1.502604027132664	3.595888449828155e-09	-0.1288663681622159	2.450072450527827	10.07425265995665	0.3842907621646801	1.495404802603395	-9.107245821123649e-10	-0.1286835970046497	6.364218118927672e-09	-0.05937584395743337	-5.013099776586738e-09	-2.584082075237321e-09	-0.04850993191525714	1.168237257713275e-09	1.850293510254122	0.6488616169179964	-0.1806187535130853	1.865848954512568	0.6528844551401869	-0.1806825326872971	1.867921976166921	0.6543574940766167	-0.1808017609568087	1.862967345162701	0.6506637070041693	-0.1795412964013694	1.859908966002708	0.6496633986224634	-0.1820482797280897	1.871924570062618	0.6574183644091531	-0.1804739013565148	1.864299630598291	0.6506761639890123	-0.1812367243709914	1.841198699810854	0.6606584965769728	-0.179922877114974	1.854247552256304	0.6554109258577866	-0.1789932810784198	1.867360354082677	0.6563003026910743	-0.1796509239102932	1.853938570751223	0.6513816928896434	-0.1794623600853725	1.859911940801245	0.65764250327328	-0.1802935198533747	1.851168301042157	0.6577536709185556	-0.1794729198535723	1.837966159748702	0.6555159050215406	-0.1810890375667172	1.847413337289665	0.6560347279958634	-0.1809332566256632	1.847836414696276	0.6501016742066622	-0.1796496780626474	1.849119378060168	0.6521760760682858	-0.1801694885552954	1.853310832949429	0.6548598012056636	-0.1798071456570607	1.850045985460044	0.6564496510663378	-0.1795014757186221	1.849610624991803	0.6517691866727892	-0.1787289584683969	1.850467909862099	0.6519583777844281	-0.180995214903322	1.865549818950281	0.6473433246997713	-0.1796238026107317	1.834080477145858	0.6527150573868087	-0.1808415161807458	1.849333281214667	0.6555342843437652	-0.1810376796702585	1.850566752801923	0.6555155562765294	-0.1810318614678444	1.864969095216196	0.6496124069525251	-0.1795147955527494	1.846935320245329	0.6579578640122296	-0.1790872223524327	1.842059130282878	0.6581678626687417	-0.1816823900415464	1.836304662581691	0.6561611902737771	-0.1810299118199353	1.843740368703759	0.651619495170466	-0.1798090346349144	1.855639399938991	0.6560377950071077	-0.1813553221691137	1.852583836279719	0.6531473028375677	-0.1805494001787464	1.868097388004457	0.6512524560349264	-0.180166075114093	1.84033125794561	0.65104891034349	-0.1790641341390138	1.832694136580395	0.6488214089011178	-0.1800220078114143	1.850848881072868	0.6567773027845706	-0.180065764516207	1.843128835740973	0.6531425669409153	-0.1793470279669827
